<svg id="visual" viewBox="0 0 1920 1080" width="1920" height="1080" xmlns="http://www.w3.org/2000/svg" xmlns:xlink="http://www.w3.org/1999/xlink" version="1.1"><g stroke-width="1" stroke-linejoin="bevel"><path d="M1043.7 516L1049.7 394L841.3 363Z" fill="#e6ca95" stroke="#e6ca95"></path><path d="M841.3 363L842.3 556L1043.7 516Z" fill="#dec08a" stroke="#dec08a"></path><path d="M1042.7 195L855.3 211L841.3 363Z" fill="#b08a47" stroke="#b08a47"></path><path d="M842.3 556L892.3 702L1043.7 516Z" fill="#e6ca95" stroke="#e6ca95"></path><path d="M1049.7 394L1042.7 195L841.3 363Z" fill="#dec08a" stroke="#dec08a"></path><path d="M629 392L679 570L841.3 363Z" fill="#e6ca95" stroke="#e6ca95"></path><path d="M841.3 363L679 570L842.3 556Z" fill="#d7b77e" stroke="#d7b77e"></path><path d="M842.3 556L679 570L892.3 702Z" fill="#dec08a" stroke="#dec08a"></path><path d="M892.3 702L1067.7 719L1043.7 516Z" fill="#a07931" stroke="#a07931"></path><path d="M1043.7 516L1292 509L1049.7 394Z" fill="#eed3a1" stroke="#eed3a1"></path><path d="M1049.7 394L1283 198L1042.7 195Z" fill="#eed3a1" stroke="#eed3a1"></path><path d="M657 216L629 392L841.3 363Z" fill="#a07931" stroke="#a07931"></path><path d="M1067.7 719L1292 509L1043.7 516Z" fill="#bf9c5d" stroke="#bf9c5d"></path><path d="M631 0L657 216L855.3 211Z" fill="#e6ca95" stroke="#e6ca95"></path><path d="M855.3 211L657 216L841.3 363Z" fill="#a07931" stroke="#a07931"></path><path d="M679 570L637 691L892.3 702Z" fill="#dec08a" stroke="#dec08a"></path><path d="M892.3 702L1051.7 888L1067.7 719Z" fill="#c7a568" stroke="#c7a568"></path><path d="M461.7 681L637 691L679 570Z" fill="#d7b77e" stroke="#d7b77e"></path><path d="M1292 509L1318 357L1049.7 394Z" fill="#e6ca95" stroke="#e6ca95"></path><path d="M1318 357L1283 198L1049.7 394Z" fill="#cfae73" stroke="#cfae73"></path><path d="M1254 907L1278 742L1067.7 719Z" fill="#a07931" stroke="#a07931"></path><path d="M1067.7 719L1278 742L1292 509Z" fill="#a8823c" stroke="#a8823c"></path><path d="M1292 509L1464.3 398L1318 357Z" fill="#d7b77e" stroke="#d7b77e"></path><path d="M1104.7 0L879.3 0L1042.7 195Z" fill="#c7a568" stroke="#c7a568"></path><path d="M1042.7 195L879.3 0L855.3 211Z" fill="#e6ca95" stroke="#e6ca95"></path><path d="M823.3 936L1051.7 888L892.3 702Z" fill="#a07931" stroke="#a07931"></path><path d="M657 216L465.7 363L629 392Z" fill="#a8823c" stroke="#a8823c"></path><path d="M629 392L457.7 508L679 570Z" fill="#e6ca95" stroke="#e6ca95"></path><path d="M430.7 149L465.7 363L657 216Z" fill="#dec08a" stroke="#dec08a"></path><path d="M1283 198L1104.7 0L1042.7 195Z" fill="#c7a568" stroke="#c7a568"></path><path d="M465.7 363L457.7 508L629 392Z" fill="#e6ca95" stroke="#e6ca95"></path><path d="M656 887L892.3 702L637 691Z" fill="#a8823c" stroke="#a8823c"></path><path d="M656 887L823.3 936L892.3 702Z" fill="#bf9c5d" stroke="#bf9c5d"></path><path d="M461.7 681L656 887L637 691Z" fill="#cfae73" stroke="#cfae73"></path><path d="M457.7 508L461.7 681L679 570Z" fill="#d7b77e" stroke="#d7b77e"></path><path d="M1483.3 532L1464.3 398L1292 509Z" fill="#cfae73" stroke="#cfae73"></path><path d="M1318 357L1481.3 183L1283 198Z" fill="#eed3a1" stroke="#eed3a1"></path><path d="M1283 198L1301 0L1104.7 0Z" fill="#eed3a1" stroke="#eed3a1"></path><path d="M879.3 0L631 0L855.3 211Z" fill="#c7a568" stroke="#c7a568"></path><path d="M1490.3 717L1483.3 532L1292 509Z" fill="#b79352" stroke="#b79352"></path><path d="M1051.7 888L1254 907L1067.7 719Z" fill="#b08a47" stroke="#b08a47"></path><path d="M1278 742L1490.3 717L1292 509Z" fill="#a8823c" stroke="#a8823c"></path><path d="M1079.7 1080L1254 907L1051.7 888Z" fill="#c7a568" stroke="#c7a568"></path><path d="M1481.3 183L1301 0L1283 198Z" fill="#cfae73" stroke="#cfae73"></path><path d="M631 0L430.7 149L657 216Z" fill="#e6ca95" stroke="#e6ca95"></path><path d="M197.3 381L213.3 579L457.7 508Z" fill="#a8823c" stroke="#a8823c"></path><path d="M225.3 723L419.7 885L461.7 681Z" fill="#eed3a1" stroke="#eed3a1"></path><path d="M1464.3 398L1481.3 183L1318 357Z" fill="#b79352" stroke="#b79352"></path><path d="M1678.7 158L1481.3 183L1741.7 337Z" fill="#e6ca95" stroke="#e6ca95"></path><path d="M1453.3 862L1490.3 717L1278 742Z" fill="#d7b77e" stroke="#d7b77e"></path><path d="M1678.7 158L1517.3 0L1481.3 183Z" fill="#b08a47" stroke="#b08a47"></path><path d="M666 1080L884.3 1080L823.3 936Z" fill="#dec08a" stroke="#dec08a"></path><path d="M823.3 936L884.3 1080L1051.7 888Z" fill="#e6ca95" stroke="#e6ca95"></path><path d="M884.3 1080L1079.7 1080L1051.7 888Z" fill="#b79352" stroke="#b79352"></path><path d="M1254 907L1453.3 862L1278 742Z" fill="#cfae73" stroke="#cfae73"></path><path d="M631 0L464.7 0L430.7 149Z" fill="#a8823c" stroke="#a8823c"></path><path d="M1461.3 1080L1453.3 862L1254 907Z" fill="#a8823c" stroke="#a8823c"></path><path d="M461.7 681L419.7 885L656 887Z" fill="#d7b77e" stroke="#d7b77e"></path><path d="M656 887L666 1080L823.3 936Z" fill="#e6ca95" stroke="#e6ca95"></path><path d="M213.3 579L461.7 681L457.7 508Z" fill="#c7a568" stroke="#c7a568"></path><path d="M419.7 885L666 1080L656 887Z" fill="#a8823c" stroke="#a8823c"></path><path d="M1079.7 1080L1241 1080L1254 907Z" fill="#dec08a" stroke="#dec08a"></path><path d="M197.3 381L465.7 363L237.3 189Z" fill="#eed3a1" stroke="#eed3a1"></path><path d="M197.3 381L457.7 508L465.7 363Z" fill="#a8823c" stroke="#a8823c"></path><path d="M1725.7 545L1464.3 398L1483.3 532Z" fill="#eed3a1" stroke="#eed3a1"></path><path d="M1481.3 183L1517.3 0L1301 0Z" fill="#c7a568" stroke="#c7a568"></path><path d="M237.3 189L465.7 363L430.7 149Z" fill="#d7b77e" stroke="#d7b77e"></path><path d="M244.3 0L237.3 189L430.7 149Z" fill="#b79352" stroke="#b79352"></path><path d="M213.3 579L225.3 723L461.7 681Z" fill="#a8823c" stroke="#a8823c"></path><path d="M1693.7 708L1483.3 532L1490.3 717Z" fill="#c7a568" stroke="#c7a568"></path><path d="M1693.7 708L1725.7 545L1483.3 532Z" fill="#dec08a" stroke="#dec08a"></path><path d="M1741.7 337L1481.3 183L1464.3 398Z" fill="#eed3a1" stroke="#eed3a1"></path><path d="M1700.7 902L1490.3 717L1453.3 862Z" fill="#a07931" stroke="#a07931"></path><path d="M1700.7 902L1693.7 708L1490.3 717Z" fill="#b08a47" stroke="#b08a47"></path><path d="M1725.7 545L1741.7 337L1464.3 398Z" fill="#e6ca95" stroke="#e6ca95"></path><path d="M1241 1080L1461.3 1080L1254 907Z" fill="#a8823c" stroke="#a8823c"></path><path d="M464.7 0L244.3 0L430.7 149Z" fill="#dec08a" stroke="#dec08a"></path><path d="M0 333L0 503L197.3 381Z" fill="#e6ca95" stroke="#e6ca95"></path><path d="M233.3 1080L390.7 1080L419.7 885Z" fill="#a8823c" stroke="#a8823c"></path><path d="M419.7 885L390.7 1080L666 1080Z" fill="#cfae73" stroke="#cfae73"></path><path d="M0 745L180.3 877L225.3 723Z" fill="#dec08a" stroke="#dec08a"></path><path d="M225.3 723L180.3 877L419.7 885Z" fill="#a07931" stroke="#a07931"></path><path d="M0 745L225.3 723L213.3 579Z" fill="#cfae73" stroke="#cfae73"></path><path d="M1920 0L1684.7 0L1678.7 158Z" fill="#a07931" stroke="#a07931"></path><path d="M1678.7 158L1684.7 0L1517.3 0Z" fill="#b08a47" stroke="#b08a47"></path><path d="M1461.3 1080L1700.7 902L1453.3 862Z" fill="#a07931" stroke="#a07931"></path><path d="M1920 529L1920 378L1725.7 545Z" fill="#e6ca95" stroke="#e6ca95"></path><path d="M1725.7 545L1920 378L1741.7 337Z" fill="#c7a568" stroke="#c7a568"></path><path d="M197.3 381L0 503L213.3 579Z" fill="#e6ca95" stroke="#e6ca95"></path><path d="M0 333L197.3 381L237.3 189Z" fill="#b79352" stroke="#b79352"></path><path d="M0 154L0 333L237.3 189Z" fill="#eed3a1" stroke="#eed3a1"></path><path d="M180.3 877L233.3 1080L419.7 885Z" fill="#eed3a1" stroke="#eed3a1"></path><path d="M0 1080L233.3 1080L180.3 877Z" fill="#b08a47" stroke="#b08a47"></path><path d="M0 503L0 745L213.3 579Z" fill="#a8823c" stroke="#a8823c"></path><path d="M244.3 0L0 154L237.3 189Z" fill="#cfae73" stroke="#cfae73"></path><path d="M1920 529L1725.7 545L1920 737Z" fill="#d7b77e" stroke="#d7b77e"></path><path d="M1741.7 337L1920 184L1678.7 158Z" fill="#c7a568" stroke="#c7a568"></path><path d="M1920 737L1725.7 545L1693.7 708Z" fill="#c7a568" stroke="#c7a568"></path><path d="M1461.3 1080L1707.7 1080L1700.7 902Z" fill="#b79352" stroke="#b79352"></path><path d="M1700.7 902L1920 737L1693.7 708Z" fill="#bf9c5d" stroke="#bf9c5d"></path><path d="M1920 378L1920 184L1741.7 337Z" fill="#b08a47" stroke="#b08a47"></path><path d="M1920 932L1920 737L1700.7 902Z" fill="#a07931" stroke="#a07931"></path><path d="M0 745L0 893L180.3 877Z" fill="#b79352" stroke="#b79352"></path><path d="M244.3 0L0 0L0 154Z" fill="#a07931" stroke="#a07931"></path><path d="M1920 184L1920 0L1678.7 158Z" fill="#bf9c5d" stroke="#bf9c5d"></path><path d="M1707.7 1080L1920 932L1700.7 902Z" fill="#cfae73" stroke="#cfae73"></path><path d="M0 893L0 1080L180.3 877Z" fill="#a8823c" stroke="#a8823c"></path><path d="M1707.7 1080L1920 1080L1920 932Z" fill="#a8823c" stroke="#a8823c"></path></g></svg>